<?xml version="1.0" encoding="UTF-8"?><svg version="1.1" xmlns="http://www.w3.org/2000/svg" width="305" height="281"><path d="M0 0 C2.68376759 -0.00434032 5.36584201 -0.04065121 8.04931641 -0.07861328 C37.38952025 -0.26728541 65.71479359 10.24027194 88.71728516 28.37060547 C90.23902344 29.52689453 90.23902344 29.52689453 91.79150391 30.70654297 C96.84925253 34.61448263 96.84925253 34.61448263 98.71728516 36.37060547 C98.71728516 37.03060547 98.71728516 37.69060547 98.71728516 38.37060547 C99.31541016 38.63873047 99.91353516 38.90685547 100.52978516 39.18310547 C102.71576369 40.36977953 104.13061109 41.4665966 105.71728516 43.37060547 C105.71728516 44.03060547 105.71728516 44.69060547 105.71728516 45.37060547 C106.37728516 45.37060547 107.03728516 45.37060547 107.71728516 45.37060547 C109.04248047 46.77246094 109.04248047 46.77246094 110.54541016 48.73779297 C111.09503418 49.45338379 111.6446582 50.16897461 112.2109375 50.90625 C112.79053223 51.6782373 113.37012695 52.45022461 113.96728516 53.24560547 C114.55848145 54.02919434 115.14967773 54.8127832 115.75878906 55.62011719 C129.68017164 74.25264059 137.45905857 94.64088246 141.71728516 117.37060547 C141.97638672 118.73596436 141.97638672 118.73596436 142.24072266 120.12890625 C147.35624714 154.92600364 138.66372393 192.1030813 117.71728516 220.37060547 C115.11703252 223.76202959 112.44255708 227.07927064 109.71728516 230.37060547 C109.20810547 231.01513672 108.69892578 231.65966797 108.17431641 232.32373047 C107.06878762 233.71131499 105.90027484 235.04844053 104.71728516 236.37060547 C104.05728516 236.37060547 103.39728516 236.37060547 102.71728516 236.37060547 C102.05728516 237.69060547 101.39728516 239.01060547 100.71728516 240.37060547 C100.05728516 240.37060547 99.39728516 240.37060547 98.71728516 240.37060547 C98.38728516 241.36060547 98.05728516 242.35060547 97.71728516 243.37060547 C95.77108407 245.04968091 93.84026492 246.59492438 91.77978516 248.12060547 C91.18423828 248.56597656 90.58869141 249.01134766 89.97509766 249.47021484 C88.77197615 250.36673442 87.56643252 251.26001339 86.35839844 252.14990234 C85.01053209 253.15248071 83.68648868 254.18701 82.36962891 255.22998047 C70.9891017 263.9047925 56.89214921 269.732944 43.27978516 273.87060547 C42.14790771 274.2168396 42.14790771 274.2168396 40.99316406 274.57006836 C29.18286906 277.91923755 17.21766968 278.72337769 5.01367188 278.6862793 C2.850561 278.68311757 0.6888226 278.70670333 -1.47412109 278.73193359 C-22.2018984 278.82605399 -41.93480916 273.44443841 -60.47802734 264.33544922 C-61.1208667 264.02188477 -61.76370605 263.70832031 -62.42602539 263.38525391 C-64.28271484 262.37060547 -64.28271484 262.37060547 -65.96166992 261.09814453 C-67.83804724 259.62342946 -67.83804724 259.62342946 -71.28271484 258.37060547 C-75.0339518 259.06033145 -78.28754297 260.6209048 -81.72021484 262.24560547 C-83.68551086 263.11471719 -85.65166358 263.98189414 -87.61865234 264.84716797 C-88.58125977 265.28061523 -89.54386719 265.7140625 -90.53564453 266.16064453 C-94.25356507 267.79822134 -98.0282121 269.23329365 -101.84521484 270.62060547 C-105.53688496 271.96912674 -109.20671987 273.33903832 -112.83740234 274.84716797 C-125.133454 279.93029325 -125.133454 279.93029325 -131.28271484 278.37060547 C-134.34521484 276.37060547 -134.34521484 276.37060547 -136.28271484 273.37060547 C-136.87610508 266.87821813 -135.48186702 262.39919636 -132.90771484 256.49560547 C-132.17655078 254.74513635 -131.44749583 252.99378523 -130.72021484 251.24169922 C-130.32833984 250.30567871 -129.93646484 249.3696582 -129.53271484 248.40527344 C-127.23408909 242.82482068 -125.07459397 237.19072168 -122.90771484 231.55810547 C-122.26503662 229.90415771 -122.26503662 229.90415771 -121.609375 228.21679688 C-120.47599736 225.27651986 -119.3726945 222.32719218 -118.28271484 219.37060547 C-118.0072583 218.66863037 -117.73180176 217.96665527 -117.44799805 217.2434082 C-116.36948921 214.19609447 -116.13665705 212.72920614 -117.37255859 209.69482422 C-117.98228516 208.82470703 -118.59201172 207.95458984 -119.22021484 207.05810547 C-124.16678293 199.30165255 -127.19135977 191.00278517 -130.28271484 182.37060547 C-130.61271484 181.47728516 -130.94271484 180.58396484 -131.28271484 179.66357422 C-139.34211273 155.69526072 -138.59980096 127.57485573 -132.28271484 103.37060547 C-132.1007959 102.65662598 -131.91887695 101.94264648 -131.73144531 101.20703125 C-128.02920763 87.09617896 -122.06239385 73.07684415 -113.28271484 61.37060547 C-112.53505859 60.35998047 -111.78740234 59.34935547 -111.01708984 58.30810547 C-108.79182653 55.31402511 -106.5395202 52.34099119 -104.28271484 49.37060547 C-103.46867187 48.20464844 -103.46867187 48.20464844 -102.63818359 47.01513672 C-102.19087891 46.47244141 -101.74357422 45.92974609 -101.28271484 45.37060547 C-100.62271484 45.37060547 -99.96271484 45.37060547 -99.28271484 45.37060547 C-99.01458984 44.77248047 -98.74646484 44.17435547 -98.47021484 43.55810547 C-97.28354078 41.37212693 -96.18672372 39.95727953 -94.28271484 38.37060547 C-93.62271484 38.37060547 -92.96271484 38.37060547 -92.28271484 38.37060547 C-91.95271484 37.38060547 -91.62271484 36.39060547 -91.28271484 35.37060547 C-89.83081055 33.96362305 -89.83081055 33.96362305 -87.95849609 32.51513672 C-87.2668335 31.97904785 -86.5751709 31.44295898 -85.86254883 30.890625 C-85.11432861 30.32714355 -84.3661084 29.76366211 -83.59521484 29.18310547 C-82.8257251 28.60157715 -82.05623535 28.02004883 -81.26342773 27.42089844 C-64.99937587 15.32827935 -46.89209 7.26145759 -27.28271484 2.37060547 C-26.27869629 2.09023437 -26.27869629 2.09023437 -25.25439453 1.80419922 C-16.97014766 -0.22785433 -8.47666321 -0.00152815 0 0 Z M-1.46630859 59.24560547 C-2.23618136 60.61029435 -2.98587003 61.98647487 -3.72021484 63.37060547 C-4.59964861 64.94525706 -5.47990337 66.51945032 -6.36083984 68.09326172 C-7.06563477 69.37354248 -7.06563477 69.37354248 -7.78466797 70.6796875 C-10.4325053 75.43595593 -13.21307918 80.11466667 -15.97021484 84.80810547 C-22.81436757 96.53320009 -29.59740473 108.29340712 -36.37402344 120.05761719 C-39.59150152 125.64231629 -42.81200556 131.22526936 -46.03271484 136.80810547 C-46.655896 137.88833984 -47.27907715 138.96857422 -47.92114258 140.08154297 C-51.23984221 145.83319486 -54.5594199 151.58433351 -57.88623047 157.33129883 C-58.79817149 158.90790455 -59.70840513 160.48549943 -60.61669922 162.06420898 C-62.54843292 165.4155303 -64.49939685 168.74565576 -66.54833984 172.02685547 C-67.20318359 173.08904297 -67.85802734 174.15123047 -68.53271484 175.24560547 C-69.09474609 176.12990234 -69.65677734 177.01419922 -70.23583984 177.92529297 C-71.50651095 180.89335309 -71.354086 182.35606113 -70.28271484 185.37060547 C-67.62364619 186.7001398 -65.61243017 186.49955836 -62.63356018 186.50431824 C-60.83110336 186.51071571 -60.83110336 186.51071571 -58.99223328 186.51724243 C-57.65359494 186.51689289 -56.31495663 186.51643134 -54.97631836 186.51586914 C-53.57204092 186.51886001 -52.1677643 186.52226236 -50.76348877 186.52604675 C-46.94327529 186.53489811 -43.12308419 186.53722534 -39.30286145 186.53786254 C-36.11685064 186.53881076 -32.93084507 186.54248803 -29.74483627 186.54603463 C-22.23003464 186.55418342 -14.71524499 186.55661847 -7.20043945 186.5559082 C0.55896019 186.55530721 8.31829036 186.56586235 16.07767242 186.58165187 C22.73333421 186.59471425 29.38897324 186.60009265 36.04464775 186.59945279 C40.02252617 186.59919743 44.00034286 186.60206955 47.97820854 186.61263084 C51.71855879 186.62229005 55.45878802 186.62240607 59.19914246 186.61511421 C60.5733972 186.61406566 61.94765939 186.61644721 63.32190132 186.62247467 C65.19496804 186.63015909 67.06807573 186.62436654 68.94114685 186.61784363 C69.99031501 186.6183884 71.03948317 186.61893316 72.1204443 186.61949444 C74.95370198 186.55445189 74.95370198 186.55445189 77.71728516 184.37060547 C77.18315963 179.94684654 76.12892458 176.83828764 73.86572266 173.01123047 C73.26937012 171.99125977 72.67301758 170.97128906 72.05859375 169.92041016 C71.40971191 168.83147461 70.76083008 167.74253906 70.09228516 166.62060547 C69.41374262 165.46655339 68.73618818 164.31191984 68.05957031 163.15673828 C66.65232636 160.75575921 65.24085778 158.35733837 63.82666016 155.96044922 C60.53632069 150.37350709 57.32054516 144.74354911 54.09228516 139.12060547 C48.83199585 129.9843859 43.51026341 120.88681443 38.10351562 111.83642578 C35.55591683 107.55605743 33.08894563 103.24946531 30.72119141 98.86669922 C27.87345163 93.6031724 24.82958676 88.48094028 21.71728516 83.37060547 C18.44523602 77.96448 15.20714055 72.56344842 12.21728516 66.99560547 C11.38440895 65.45369179 10.55114695 63.91198636 9.71728516 62.37060547 C9.36537109 61.71447266 9.01345703 61.05833984 8.65087891 60.38232422 C7.61132811 58.50095984 7.61132811 58.50095984 5.71728516 56.37060547 C1.7655742 55.38926392 1.01546742 55.97800771 -1.46630859 59.24560547 Z M-95.28271484 212.37060547 C-95.55946045 213.09538086 -95.83620605 213.82015625 -96.12133789 214.56689453 C-97.40244721 217.91884174 -98.68631776 221.26972512 -99.97021484 224.62060547 C-100.40527344 225.76013672 -100.84033203 226.89966797 -101.28857422 228.07373047 C-103.86193664 234.78353471 -106.53366319 241.43282742 -109.37573242 248.03369141 C-110.40332031 250.26356396 -110.40332031 250.26356396 -110.28271484 252.37060547 C-101.70562598 250.00691053 -93.45131052 246.87192757 -85.15771484 243.68310547 C-83.80627698 243.16650326 -82.45471527 242.65022492 -81.10302734 242.13427734 C-77.82815591 240.88344451 -74.55497415 239.62825847 -71.28271484 238.37060547 C-71.94271484 237.05060547 -72.60271484 235.73060547 -73.28271484 234.37060547 C-73.94271484 234.37060547 -74.60271484 234.37060547 -75.28271484 234.37060547 C-75.28271484 233.71060547 -75.28271484 233.05060547 -75.28271484 232.37060547 C-76.76949146 230.90648424 -76.76949146 230.90648424 -78.72021484 229.37060547 C-82.9762096 225.76588394 -86.62805612 221.79290674 -90.30224609 217.60498047 C-91.9114988 215.78941331 -93.5589378 214.07450571 -95.28271484 212.37060547 Z " fill="white" transform="translate(157.28271484375,2.62939453125)"/><path d="M0 0 C0.99 0 1.98 0 3 0 C4.59237269 2.24752031 5.96118454 4.42511887 7.3125 6.8125 C7.71275391 7.50029541 8.11300781 8.18809082 8.52539062 8.89672852 C11.2326114 13.57387745 13.84977891 18.29955443 16.41015625 23.05859375 C21.41291229 32.31430702 26.54450729 41.44470753 32.28417969 50.26660156 C33.86894181 52.79121692 35.31226169 55.33779678 36.71875 57.96484375 C40.31773541 64.61663464 44.05792764 71.18537321 47.8125 77.75 C48.16183594 78.36229462 48.51117188 78.97458923 48.87109375 79.60543823 C53.63906593 87.96153325 58.4916362 96.2524855 63.59375 104.41015625 C65 107 65 107 65 110 C23.09 110 -18.82 110 -62 110 C-60.61113458 106.52783645 -59.28801982 103.54029159 -57.5 100.3125 C-56.96375 99.343125 -56.4275 98.37375 -55.875 97.375 C-55.25625 96.26125 -54.6375 95.1475 -54 94 C-53.29120062 92.70858901 -52.5828944 91.41690728 -51.875 90.125 C-45.99442602 79.4272941 -39.87613809 68.87711892 -33.70703125 58.34375 C-29.94246195 51.91240324 -26.21821286 45.45822818 -22.5 39 C-16.80345183 29.10776377 -11.06911539 19.2383922 -5.30273438 9.38671875 C-4.75166016 8.44441406 -4.20058594 7.50210938 -3.6328125 6.53125 C-3.14699707 5.70173828 -2.66118164 4.87222656 -2.16064453 4.01757812 C-1.40241841 2.69953424 -0.68002155 1.3600431 0 0 Z M-3.1484375 25.8046875 C-3.90939388 27.15102132 -4.64988824 28.50902697 -5.375 29.875 C-6.24955676 31.44035189 -7.12458791 33.00543879 -8 34.5703125 C-8.47566406 35.4355957 -8.95132813 36.30087891 -9.44140625 37.19238281 C-11.72388634 41.30399325 -14.0901964 45.36578374 -16.45043945 49.43310547 C-20.82856189 56.97860482 -25.17540233 64.54202455 -29.48828125 72.125 C-30.02984863 73.07665039 -30.57141602 74.02830078 -31.12939453 75.00878906 C-32.13637147 76.78038685 -33.14139222 78.55309861 -34.14404297 80.32714844 C-36.09598522 83.76273404 -38.04855296 87.13081643 -40.3125 90.37109375 C-42.32336295 93.50375755 -42.42509691 95.34416656 -42 99 C-40.2227831 100.7772169 -37.847528 100.11988099 -35.48136902 100.12442017 C-34.69015152 100.12082489 -33.89893402 100.11722961 -33.08374023 100.11352539 C-32.25454071 100.11367142 -31.42534119 100.11381744 -30.5710144 100.1139679 C-27.81684802 100.11326851 -25.06274839 100.10547493 -22.30859375 100.09765625 C-20.40430234 100.09579216 -18.50001045 100.09436822 -16.59571838 100.09336853 C-11.57332037 100.08954263 -6.55095108 100.07971173 -1.52856445 100.06866455 C3.5922812 100.05845198 8.71313148 100.05387124 13.83398438 100.04882812 C23.88933557 100.03808953 33.9446654 100.02101224 44 100 C45.09354798 98.12115138 45.09354798 98.12115138 46 96 C45.27221816 93.71197732 45.27221816 93.71197732 43.75 91.375 C43.1828125 90.405625 42.615625 89.43625 42.03125 88.4375 C41.3609375 87.303125 40.690625 86.16875 40 85 C38.82421759 82.89184276 37.66416912 80.77542499 36.50390625 78.65869141 C30.18821662 67.15616789 23.54773374 55.84834165 16.75 44.625 C14.69096717 41.21654452 12.76403869 37.75552951 10.875 34.25 C9.91871464 32.49888005 8.96058827 30.74876326 8 29 C7.46052734 27.99646484 7.46052734 27.99646484 6.91015625 26.97265625 C5.88927203 25.12447355 5.88927203 25.12447355 4 23 C0.09248074 22.0442507 -0.68215044 22.58506185 -3.1484375 25.8046875 Z " fill="white" transform="translate(159,71)"/><path d="M0 0 C0.99 0 1.98 0 3 0 C3.2902002 0.51046875 3.58040039 1.0209375 3.87939453 1.546875 C10.54514709 13.26322699 17.27006937 24.94214372 24.10205078 36.5625 C35 55.15555388 35 55.15555388 35 58 C12.89 58 -9.22 58 -32 58 C-30.52567141 53.57701424 -29.29659767 50.47409784 -27.015625 46.5703125 C-26.41637207 45.53841797 -25.81711914 44.50652344 -25.19970703 43.44335938 C-24.55630371 42.34830078 -23.91290039 41.25324219 -23.25 40.125 C-22.24280339 38.39528671 -21.23560697 36.66557332 -20.22842407 34.93585205 C-18.8380207 32.55130595 -17.4424542 30.16979898 -16.04699707 27.78820801 C-13.68945194 23.76166275 -11.34140032 19.72957166 -8.99121094 15.69873047 C-7.76407323 13.59538689 -6.53559577 11.49282428 -5.30566406 9.39111328 C-4.47760254 7.97548096 -4.47760254 7.97548096 -3.6328125 6.53125 C-3.14699707 5.70173828 -2.66118164 4.87222656 -2.16064453 4.01757812 C-1.40241841 2.69953424 -0.68002155 1.3600431 0 0 Z " fill="white" transform="translate(159,106)"/><path d="M0 0 C0.66 0 1.32 0 2 0 C-0.7072014 6.09120316 -5.10286572 10.11413944 -10.09765625 14.3515625 C-11.81221871 15.83728192 -13.41884241 17.37451089 -15 19 C-15.99 18.67 -16.98 18.34 -18 18 C-17.56131592 17.5968457 -17.12263184 17.19369141 -16.6706543 16.77832031 C-14.67308995 14.93896581 -12.68026983 13.09454728 -10.6875 11.25 C-9.65206055 10.29867187 -9.65206055 10.29867187 -8.59570312 9.328125 C-7.59506836 8.4 -7.59506836 8.4 -6.57421875 7.453125 C-5.96151123 6.88754883 -5.34880371 6.32197266 -4.7175293 5.73925781 C-2.91837869 4.00639652 -2.91837869 4.00639652 -1.40161133 1.78417969 C-0.93907959 1.19540039 -0.47654785 0.60662109 0 0 Z " fill="white" transform="translate(252,220)"/><path d="M0 0 C0.61875 0.33 1.2375 0.66 1.875 1 C3.91018344 2.14193235 3.91018344 2.14193235 6 2 C6.37125 3.051875 6.7425 4.10375 7.125 5.1875 C8.88811047 9.37808141 11.37340285 11.34049542 15 14 C14.34 14.66 13.68 15.32 13 16 C12.24074219 15.22914062 11.48148438 14.45828125 10.69921875 13.6640625 C9.69544634 12.65090904 8.69153268 11.63789552 7.6875 10.625 C7.18798828 10.11710937 6.68847656 9.60921875 6.17382812 9.0859375 C3.87457613 6.77145867 1.72478775 4.81652517 -1 3 C-0.67 2.01 -0.34 1.02 0 0 Z " fill="white" transform="translate(240,48)"/><path d="M0 0 C0.66 0.33 1.32 0.66 2 1 C1.22914062 1.75925781 0.45828125 2.51851562 -0.3359375 3.30078125 C-1.34909096 4.30455366 -2.36210448 5.30846732 -3.375 6.3125 C-3.88289063 6.81201172 -4.39078125 7.31152344 -4.9140625 7.82617188 C-7.22854133 10.12542387 -9.18347483 12.27521225 -11 15 C-11.99 14.67 -12.98 14.34 -14 14 C-13.67 12.68 -13.34 11.36 -13 10 C-12.01 10 -11.02 10 -10 10 C-8.19663763 8.30202294 -8.19663763 8.30202294 -6.5 6.125 C-4.36959371 3.51805546 -2.83997143 1.89331428 0 0 Z " fill="white" transform="translate(80,49)"/><path d="M0 0 C0.99 0 1.98 0 3 0 C3.061875 0.556875 3.12375 1.11375 3.1875 1.6875 C3.88217427 4.2555918 3.88217427 4.2555918 6.5 6.25 C9.84115137 9.92526651 9.75220973 12.12679141 10 17 C7.45616883 13.76737762 5.37788083 10.36737983 3.3125 6.8125 C2.68988281 5.74644531 2.06726563 4.68039063 1.42578125 3.58203125 C0 1 0 1 0 0 Z " fill="white" transform="translate(260,72)"/><path d="M0 0 C4.23443737 -0.35286978 5.73002899 0.4236592 9 3 C10.5778125 3.495 10.5778125 3.495 12.1875 4 C13.5796875 4.495 13.5796875 4.495 15 5 C15.33 5.99 15.66 6.98 16 8 C12.34061828 6.56835889 8.76011932 5.01065704 5.1875 3.375 C4.21167969 2.92898437 3.23585937 2.48296875 2.23046875 2.0234375 C1.49441406 1.68570312 0.75835937 1.34796875 0 1 C0 0.67 0 0.34 0 0 Z " fill="white" transform="translate(208,30)"/><path d="M0 0 C3.09592835 3.5087188 4.74194623 6.49197399 6 11 C4.02 10.01 2.04 9.02 0 8 C0 5.36 0 2.72 0 0 Z " fill="white" transform="translate(51,195)"/><path d="M0 0 C0 3.60573896 -0.81707462 4.41336566 -3 7.1875 C-3.556875 7.90292969 -4.11375 8.61835937 -4.6875 9.35546875 C-5.120625 9.89816406 -5.55375 10.44085938 -6 11 C-7.1157177 7.65284689 -7.1807689 6.28928478 -6 3 C-3.5 1.75 -3.5 1.75 -1 1 C-0.67 0.67 -0.34 0.34 0 0 Z " fill="white" transform="translate(66,64)"/><path d="M0 0 C3.38361519 0.61728115 5.52002561 1.86979718 8.25 3.9375 C8.95640625 4.46214844 9.6628125 4.98679687 10.390625 5.52734375 C11.18726563 6.25630859 11.18726563 6.25630859 12 7 C12 7.66 12 8.32 12 9 C8.98472262 7.59422879 6.4052059 5.93873852 3.75 3.9375 C3.04359375 3.41027344 2.3371875 2.88304687 1.609375 2.33984375 C1.07828125 1.89769531 0.5471875 1.45554688 0 1 C0 0.67 0 0.34 0 0 Z " fill="white" transform="translate(224,38)"/><path d="M0 0 C1.33332095 2.6666419 0.67102033 4.16680303 0 7 C-0.99 6.67 -1.98 6.34 -3 6 C-3 6.66 -3 7.32 -3 8 C-3.66 7.67 -4.32 7.34 -5 7 C-3.35 4.69 -1.7 2.38 0 0 Z " fill="white" transform="translate(262,208)"/></svg>